<?xml version="1.0" encoding="UTF-8" standalone="no"?>
<!-- Created with Inkscape (http://www.inkscape.org/) -->

<svg
   xmlns:dc="http://purl.org/dc/elements/1.1/"
   xmlns:cc="http://creativecommons.org/ns#"
   xmlns:rdf="http://www.w3.org/1999/02/22-rdf-syntax-ns#"
   xmlns:svg="http://www.w3.org/2000/svg"
   xmlns="http://www.w3.org/2000/svg"
   xmlns:sodipodi="http://sodipodi.sourceforge.net/DTD/sodipodi-0.dtd"
   xmlns:inkscape="http://www.inkscape.org/namespaces/inkscape"
   width="300"
   height="300"
   viewBox="0 0 300 300"
   id="svg2"
   version="1.1"
   inkscape:version="0.91 r13725"
   inkscape:export-filename="Z:\Unity Projects\MGTA Projects\Simon\Assets\Simon Blurs.png"
   inkscape:export-xdpi="91.839996"
   inkscape:export-ydpi="91.839996"
   sodipodi:docname="Simon Art.svg">
  <defs
     id="defs4">
    <filter
       style="color-interpolation-filters:sRGB;"
       inkscape:label="Blur"
       id="filter4259">
      <feGaussianBlur
         stdDeviation="2 2"
         result="blur"
         id="feGaussianBlur4261" />
    </filter>
    <filter
       style="color-interpolation-filters:sRGB;"
       inkscape:label="Blur"
       id="filter4263">
      <feGaussianBlur
         stdDeviation="2 2"
         result="blur"
         id="feGaussianBlur4265" />
    </filter>
    <filter
       style="color-interpolation-filters:sRGB;"
       inkscape:label="Blur"
       id="filter4267">
      <feGaussianBlur
         stdDeviation="2 2"
         result="blur"
         id="feGaussianBlur4269" />
    </filter>
    <filter
       style="color-interpolation-filters:sRGB;"
       inkscape:label="Blur"
       id="filter4271">
      <feGaussianBlur
         stdDeviation="2 2"
         result="blur"
         id="feGaussianBlur4273" />
    </filter>
    <filter
       style="color-interpolation-filters:sRGB;"
       inkscape:label="Blur"
       id="filter4297">
      <feGaussianBlur
         stdDeviation="2 2"
         result="blur"
         id="feGaussianBlur4299" />
    </filter>
  </defs>
  <sodipodi:namedview
     id="base"
     pagecolor="#ffffff"
     bordercolor="#666666"
     borderopacity="1.0"
     inkscape:pageopacity="0.0"
     inkscape:pageshadow="2"
     inkscape:zoom="1.4"
     inkscape:cx="67.203213"
     inkscape:cy="121.13913"
     inkscape:document-units="px"
     inkscape:current-layer="layer1"
     showgrid="false"
     units="px"
     inkscape:snap-global="false"
     inkscape:snap-object-midpoints="true"
     inkscape:snap-center="true"
     inkscape:snap-bbox="true"
     inkscape:bbox-nodes="true"
     inkscape:window-width="1920"
     inkscape:window-height="1017"
     inkscape:window-x="-8"
     inkscape:window-y="-8"
     inkscape:window-maximized="1"
     showguides="false" />
  <metadata
     id="metadata7">
    <rdf:RDF>
      <cc:Work
         rdf:about="">
        <dc:format>image/svg+xml</dc:format>
        <dc:type
           rdf:resource="http://purl.org/dc/dcmitype/StillImage" />
        <dc:title></dc:title>
      </cc:Work>
    </rdf:RDF>
  </metadata>
  <g
     inkscape:label="Layer 1"
     inkscape:groupmode="layer"
     id="layer1"
     transform="translate(0,-752.36216)">
    <circle
       style="opacity:1;fill:#f9f9f9;fill-opacity:1;stroke:none;stroke-width:2;stroke-miterlimit:4;stroke-dasharray:none;stroke-opacity:1"
       id="path4136"
       cx="150"
       cy="582.36218"
       r="150" />
    <path
       style="opacity:1;fill:#ffffff;fill-opacity:1;stroke:none;stroke-width:2;stroke-miterlimit:4;stroke-dasharray:none;stroke-opacity:1"
       d="M 143.43359,446.2313 A 136.36295,136.36295 0 0 0 13.964844,575.79575 l 69.701172,0 a 66.662414,66.662414 0 0 1 59.767574,-59.70507 l 0,-69.85938 z"
       id="path4197"
       inkscape:connector-curvature="0" />
    <path
       style="opacity:1;fill:#ffffff;fill-opacity:1;stroke:none;stroke-width:2;stroke-miterlimit:4;stroke-dasharray:none;stroke-opacity:1"
       d="m 156.56641,446.327 0,69.70118 a 66.662414,66.662414 0 0 1 59.70507,59.76757 l 69.85938,0 A 136.36295,136.36295 0 0 0 156.56641,446.327 Z"
       id="path4195"
       inkscape:connector-curvature="0" />
    <path
       style="opacity:1;fill:#ffffff;fill-opacity:1;stroke:none;stroke-width:2;stroke-miterlimit:4;stroke-dasharray:none;stroke-opacity:1"
       d="M 13.869141,588.92857 A 136.36295,136.36295 0 0 0 143.43359,718.3973 l 0,-69.70116 A 66.662414,66.662414 0 0 1 83.728516,588.92857 l -69.859375,0 z"
       id="path4193"
       inkscape:connector-curvature="0" />
    <path
       style="opacity:1;fill:#ffffff;fill-opacity:1;stroke:none;stroke-width:2;stroke-miterlimit:4;stroke-dasharray:none;stroke-opacity:1"
       d="m 216.33398,588.92857 a 66.662414,66.662414 0 0 1 -59.76757,59.70507 l 0,69.85936 A 136.36295,136.36295 0 0 0 286.03516,588.92857 l -69.70118,0 z"
       id="circle4138"
       inkscape:connector-curvature="0" />
    <g
       id="g4182" />
    <path
       id="path4199"
       d="M 483.43359,766.2313 A 136.36295,136.36295 0 0 0 353.96484,895.79575 l 69.70118,0 a 66.662414,66.662414 0 0 1 59.76757,-59.70507 l 0,-69.85938 z"
       style="opacity:1;fill:#ececec;fill-opacity:1;stroke:none;stroke-width:2;stroke-miterlimit:4;stroke-dasharray:none;stroke-opacity:1;filter:url(#filter4271)"
       inkscape:connector-curvature="0"
       inkscape:export-xdpi="91.839996"
       inkscape:export-ydpi="91.839996" />
    <path
       id="path4201"
       d="m 496.56641,766.327 0,69.70118 a 66.662414,66.662414 0 0 1 59.70507,59.76757 l 69.85938,0 A 136.36295,136.36295 0 0 0 496.56641,766.327 Z"
       style="opacity:1;fill:#ececec;fill-opacity:1;stroke:none;stroke-width:2;stroke-miterlimit:4;stroke-dasharray:none;stroke-opacity:1;filter:url(#filter4267)"
       inkscape:connector-curvature="0"
       inkscape:export-xdpi="91.839996"
       inkscape:export-ydpi="91.839996" />
    <path
       id="path4203"
       d="m 353.86914,908.92857 a 136.36295,136.36295 0 0 0 129.56445,129.46873 l 0,-69.70116 a 66.662414,66.662414 0 0 1 -59.70507,-59.76757 l -69.85938,0 z"
       style="opacity:1;fill:#ececec;fill-opacity:1;stroke:none;stroke-width:2;stroke-miterlimit:4;stroke-dasharray:none;stroke-opacity:1;filter:url(#filter4259)"
       inkscape:connector-curvature="0"
       inkscape:export-xdpi="91.839996"
       inkscape:export-ydpi="91.839996" />
    <path
       id="path4205"
       d="m 556.33398,908.92857 a 66.662414,66.662414 0 0 1 -59.76757,59.70507 l 0,69.85936 A 136.36295,136.36295 0 0 0 626.03516,908.92857 l -69.70118,0 z"
       style="opacity:1;fill:#ececec;fill-opacity:1;stroke:none;stroke-width:2;stroke-miterlimit:4;stroke-dasharray:none;stroke-opacity:1;filter:url(#filter4263)"
       inkscape:connector-curvature="0"
       inkscape:export-xdpi="91.839996"
       inkscape:export-ydpi="91.839996" />
    <path
       id="path4275"
       d="M 143.43359,446.2313 A 136.36295,136.36295 0 0 0 13.964844,575.79575 l 69.701172,0 a 66.662414,66.662414 0 0 1 59.767574,-59.70507 l 0,-69.85938 z"
       style="opacity:1;fill:#f2f2f2;fill-opacity:1;stroke:none;stroke-width:2;stroke-miterlimit:4;stroke-dasharray:none;stroke-opacity:1"
       inkscape:connector-curvature="0" />
    <path
       id="path4279"
       d="M 13.869141,588.92857 A 136.36295,136.36295 0 0 0 143.43359,718.3973 l 0,-69.70116 A 66.662414,66.662414 0 0 1 83.728516,588.92857 l -69.859375,0 z"
       style="opacity:1;fill:#f2f2f2;fill-opacity:1;stroke:none;stroke-width:2;stroke-miterlimit:4;stroke-dasharray:none;stroke-opacity:1"
       inkscape:connector-curvature="0" />
    <path
       id="path4281"
       d="m 216.33398,588.92857 a 66.662414,66.662414 0 0 1 -59.76757,59.70507 l 0,69.85936 A 136.36295,136.36295 0 0 0 286.03516,588.92857 l -69.70118,0 z"
       style="opacity:1;fill:#f2f2f2;fill-opacity:1;stroke:none;stroke-width:2;stroke-miterlimit:4;stroke-dasharray:none;stroke-opacity:1"
       inkscape:connector-curvature="0" />
    <path
       style="opacity:1;fill:#e6e6e6;fill-opacity:1;stroke:none;stroke-width:2;stroke-miterlimit:4;stroke-dasharray:none;stroke-opacity:1;filter:url(#filter4297)"
       d="m 164.14257,774.40512 0,57.13867 a 72.225906,72.225906 0 0 1 56.61328,56.67578 l 57.10547,0 A 128.79445,128.79445 0 0 0 164.14257,774.40512 Z m -28.28516,0.0957 A 128.79445,128.79445 0 0 0 22.042959,888.21957 l 57.13867,0 a 72.225906,72.225906 0 0 1 56.675781,-56.61328 l 0,-57.10547 z M 22.138659,916.50473 A 128.79445,128.79445 0 0 0 135.85741,1030.3192 l 0,-57.13869 A 72.225906,72.225906 0 0 1 79.244129,916.50473 l -57.10547,0 z m 198.679691,0 a 72.225906,72.225906 0 0 1 -56.67578,56.61328 l 0,57.10549 A 128.79445,128.79445 0 0 0 277.95702,916.50473 l -57.13867,0 z"
       id="circle4285"
       inkscape:connector-curvature="0"
       inkscape:export-xdpi="91.839996"
       inkscape:export-ydpi="91.839996"
       transform="matrix(1.0390756,0,0,1.0390756,-5.8613424,-35.260357)" />
  </g>
</svg>
